<?xml version="1.0" encoding="UTF-8"?>
<svg id="Layer_1" xmlns="http://www.w3.org/2000/svg" viewBox="0 0 409.28 426.9">
  <path d="M79.89,286.59v61.81c3.21,0,5.37,0,7.53,0,39.29.03,78.59.18,117.88-.05,6.68-.04,10.88,1.81,15.07,7.42,15.66,20.95,32.09,41.31,48.21,61.91,1.77,2.26,3.37,4.67,5.93,8.23H0v-139.32h79.89Z"/>
  <g>
    <path d="M290.08,249.23c5.71-1.65,10.18-2.42,14.22-4.18,45.62-19.92,72.29-54.34,77.27-104.1,5.36-53.58-18.13-93.48-61.74-122.47C298.52,4.32,274.43.23,249.3,0v79.66c11.98.3,22.61,4.17,32.18,11.44,14.57,11.07,23.2,33.61,19,49.85-6.29,24.33-26.03,38.74-52.75,38.66-67.1-.18-134.21-.4-201.31-.38-12.37,0-33.65-.18-46.09.39,0,24.88-.16,50.94-.16,74.09,13.26,0,29.33-.12,41.25-.11,50.82.04,101.64.04,152.47.29,2.16.01,5.06,1.72,6.36,3.54,11.98,16.67,23.54,33.64,35.49,50.33,27.57,38.52,55.24,76.96,83.09,115.28,1.51,2.08,5.01,3.86,7.57,3.85,21-.11,42-.71,63.01-1.1,5.84-.11,11.68-.02,19.89-.02-39.66-59.96-81.93-116.12-119.2-176.56Z"/>
    <path d="M79.5,80.46c1.62-.18,2.5-.36,3.37-.36,45.57-.14,91.14-.24,136.71-.4V.17C147.77.69,75.95.86,4.14,1.19c-1.05,0-2.1.31-3.97.6v141.04h79.34v-62.37Z"/>
  </g>
</svg>